General
Complete name                    : WILLY DeVILLE-UNPLUGGED-THE BERLIN CONCERTS 2002-(Y)(°U°).mkv
Format                           : Matroska
File size                        : 1.50 GiB
Duration                         : 1h 31mn
Overall bit rate                 : 2 348 Kbps
Movie name                       : WILLY DeVILLE - THE BERLIN CONCERTS 2002
Encoded date                     : UTC 2010-07-07 11:55:36
Writing application              : mkvmerge v4.0.0 ('The Stars were mine') built on Jun  6 2010 16:18:42
Writing library                  : libebml v1.0.0 + libmatroska v1.0.0

Video
ID                               : 1
Format                           : AVC
Format/Info                      : Advanced Video Codec
Format profile                   : High@L4.1
Format settings, CABAC           : Yes
Format settings, ReFrames        : 10 frames
Muxing mode                      : Container profile=Unknown@4.1
Codec ID                         : V_MPEG4/ISO/AVC
Duration                         : 1h 31mn
Bit rate                         : 1 899 Kbps
Width                            : 960 pixels
Height                           : 720 pixels
Display aspect ratio             : 4:3
Frame rate                       : 25.000 fps
Color space                      : YUV
Chroma subsampling               : 4:2:0
Bit depth                        : 8 bits
Scan type                        : Progressive
Bits/(Pixel*Frame)               : 0.110
Stream size                      : 1.18 GiB (79%)
Writing library                  : x264 core 98 r1643 59a9e03

Audio
ID                               : 2
Format                           : AC-3
Format/Info                      : Audio Coding 3
Mode extension                   : CM (complete main)
Codec ID                         : A_AC3
Duration                         : 1h 31mn
Bit rate mode                    : Constant
Bit rate                         : 448 Kbps
Channel(s)                       : 6 channels
Channel positions                : Front: L C R, Side: L R, LFE
Sampling rate                    : 48.0 KHz
Bit depth                        : 16 bits
Stream size                      : 292 MiB (19%)
Source                           : WILLY DeVILLE - THE BERLIN CONCERTS 2002 
                                   DVD-1
                                   WILLY DeVILLE - UNPLUGGED

